# xmcd
#
# Track frame offsets:
#	2022
#	23049
#	41020
#	53515
#	68705
#	82232
#	101098
#	114381
#	129534
#	144948
#	158177
#	174325
#	194437
#	207787
#
# Disc length: 3028 seconds
#
# Revision: 1
# Processed by: cddbd v1.5.2PL0 Copyright (c) Steve Scherf et al.
# Submitted via: audiograbber 1.83.01
#
DISCID=c10bba0e
DTITLE=Donna Ulisse - When I Look Back
DYEAR=2007
DGENRE=Bluegrass
TTITLE0=I'm Calling Heaven Down
TTITLE1=The Walls Cry
TTITLE2=My Prayer
TTITLE3=She Needs Time
TTITLE4=When I Look Back
TTITLE5=Gone
TTITLE6=He Ain't That
TTITLE7=Heartbreak River
TTITLE8=I Want To Grow Old With You
TTITLE9=Doin' Time
TTITLE10=She Goes Sailing
TTITLE11=I Am a Child of God
TTITLE12=He's Still a Believer
TTITLE13=If I Were
EXTD=
EXTT0=
EXTT1=
EXTT2=
EXTT3=
EXTT4=
EXTT5=
EXTT6=
EXTT7=
EXTT8=
EXTT9=
EXTT10=
EXTT11=
EXTT12=
EXTT13=
PLAYORDER=
